# Blender v2.78 (sub 0) OBJ File: 'CapitolShip.blend'
# www.blender.org
mtllib CapitalShip1.mtl
o Cube
v -0.539410 2.242054 -0.795950
v -0.539410 2.242054 0.787325
v -4.141437 2.242054 0.787325
v -4.141436 2.242054 -0.795951
v -0.539410 2.900987 -0.795950
v -0.539412 2.900987 0.787326
v -4.141438 2.839607 0.787325
v -4.141437 2.839607 -0.795950
v -2.221952 1.916512 -0.567797
v -2.221953 1.916512 0.559172
v -2.221952 2.900987 -0.795950
v -2.221954 2.900987 0.787326
v -0.539410 2.414857 -0.795950
v -0.539410 2.692184 -0.795950
v -0.539410 2.414857 0.787326
v -0.539411 2.692184 0.787326
v -2.221952 2.414857 -0.795950
v -2.221952 2.692184 -0.795950
v -2.221953 2.692184 0.787326
v -2.221953 2.414857 0.787325
v -0.539410 2.414857 -0.657441
v -0.539410 2.692184 -0.657441
v -2.221952 2.414857 -0.657442
v -2.221952 2.692184 -0.657441
v -0.539410 2.414857 0.648789
v -0.539411 2.692184 0.648789
v -2.221953 2.692184 0.648789
v -2.221953 2.414857 0.648789
v -0.678417 2.414857 -0.795950
v -0.678417 2.692184 -0.795950
v -0.678418 2.414857 0.787326
v -0.678419 2.692184 0.787326
v -0.678611 2.414857 0.648789
v -0.678456 2.692184 0.648789
v -0.678419 2.692184 0.648113
v -0.678418 2.414857 0.648713
v -0.678417 2.414857 -0.657603
v -0.678417 2.692184 -0.657632
v -0.678734 2.414857 -0.657441
v -0.678808 2.692184 -0.657441
v -2.576358 1.916512 -0.567797
v -2.576358 1.916512 0.559172
v -2.576358 2.663058 -0.795950
v -2.576359 2.663058 0.787326
v -2.576358 2.566139 -0.795950
v -2.576358 2.395497 -0.795950
v -2.576359 2.395497 0.787325
v -2.576359 2.566139 0.787325
v -4.255699 2.540792 -0.795951
v -4.255699 2.534159 0.787325
v -3.767200 2.663058 0.787325
v -3.767200 2.663058 -0.795950
v -3.883609 2.839607 0.787325
v -3.883609 2.839607 -0.795950
v -5.065221 0.602216 1.185967
v -5.065221 1.923940 0.757069
v -5.065221 0.602216 -1.192867
v -5.065221 1.923940 -0.763969
v 7.680264 0.227711 1.415352
v 7.943771 2.078156 0.757069
v 7.680264 0.227711 -1.255981
v 7.943771 2.073910 -0.757135
v -0.585272 0.048253 2.065711
v -0.585272 1.312292 2.065711
v -0.852320 0.292685 3.026999
v -0.852320 1.067860 3.026999
v -4.400768 0.048253 2.065711
v -4.400768 1.312292 2.065711
v -4.259443 0.292685 3.026999
v -4.259443 1.067860 3.026999
v -3.997206 0.911709 3.026999
v -3.997206 0.415540 3.026999
v -2.987106 0.415540 3.026998
v -2.987106 0.911709 3.026998
v -3.997206 0.911709 3.099043
v -3.997206 0.415540 3.099043
v -2.987106 0.415540 3.099043
v -2.987106 0.911709 3.099043
v -0.613400 1.151589 2.166964
v -0.818064 0.969803 2.903679
v -0.818064 0.376526 2.903679
v -0.618718 0.190032 2.186099
v -0.749350 1.151590 2.118644
v -0.950700 0.969803 2.903880
v -0.950700 0.376526 2.903881
v -0.754668 0.190032 2.137779
v -5.065221 1.806768 0.987137
v -5.065221 1.806768 -0.994038
v 7.943771 1.877671 -1.065719
v 7.943771 1.918561 1.006708
v -5.065221 1.628597 -1.080911
v 7.943771 1.628597 -1.254882
v 7.943771 1.628597 1.322966
v -5.065221 1.628597 1.074010
v 7.680264 0.227711 1.215600
v 7.680264 0.227711 -1.053008
v 7.943772 1.653679 1.101007
v 7.943771 1.912436 0.720077
v 7.943771 1.918035 -0.723578
v 7.943772 1.654840 -1.041358
v -5.064009 0.602215 1.020929
v -5.064009 0.602215 -1.047252
v 5.071180 1.877671 -1.065719
v 5.078322 1.912435 0.720077
v 5.425858 1.628597 -1.254882
v 5.425858 1.877671 -1.065719
v 5.425858 0.227711 1.415352
v 5.425858 2.073910 -0.757135
v 5.425858 1.628597 1.322966
v 5.425858 1.918561 1.006708
v 5.425858 2.078156 0.757069
v 5.425858 0.227711 -1.255981
v 5.421690 1.912435 0.720077
v 5.421690 1.653678 1.101007
v 5.421690 0.227711 1.215600
v 5.421690 0.227711 -1.053007
v 5.421691 1.654839 -1.041358
v 5.421690 1.918035 -0.723578
v 5.071180 0.602216 1.415352
v 5.078323 1.653678 1.101007
v 5.071180 1.628597 -1.254882
v 5.078323 0.602215 -1.053007
v 5.078323 1.918035 -0.723578
v 5.078323 0.602215 1.215600
v 5.078324 1.654839 -1.041358
v 5.071180 2.073910 -0.757135
v 5.071180 0.602216 -1.255981
v 5.071180 2.078156 0.757069
v 5.071180 1.918561 1.006708
v 5.071180 1.628597 1.322966
v 1.840501 1.806167 -0.723578
v 1.840501 0.602215 1.020928
v 2.004407 0.602216 -1.129324
v 2.004407 1.923940 0.880536
v 2.004407 1.806768 1.110605
v 2.004407 1.628597 1.197478
v 1.840500 1.800568 0.720077
v 2.004408 1.806768 -1.000510
v 2.004408 0.602216 1.309434
v 1.840501 1.653678 0.906335
v 2.004408 1.628597 -1.087383
v 1.840501 0.602215 -0.955456
v 1.840502 1.654839 -0.919240
v 2.004408 1.923940 -0.770441
v 2.110552 1.912435 0.720077
v 2.260486 1.877671 -1.065719
v 2.260486 0.602216 1.415352
v 2.110553 1.653678 1.101007
v 2.260486 1.628597 -1.254882
v 2.110553 0.602215 -1.053007
v 2.110554 1.654839 -1.041358
v 2.260486 2.073910 -0.757135
v 2.110552 1.918035 -0.723578
v 2.110552 0.602215 1.215600
v 2.260485 0.602216 -1.255981
v 2.260485 2.078156 0.757069
v 2.260485 1.918561 1.006708
v 2.260485 1.628597 1.322966
v 7.872387 1.249093 1.347994
v -5.065221 1.350548 1.104340
v 5.425858 1.249093 1.347994
v 5.071180 1.350548 1.347994
v 2.004407 1.350548 1.227807
v 2.260486 1.350548 1.347994
v -0.868401 1.806167 -0.723578
v -0.868401 0.602215 1.020928
v -0.567847 0.602216 -2.176492
v -0.567847 1.923940 0.757069
v -0.567847 1.806768 0.987137
v -0.567847 1.628597 1.074010
v -0.868402 1.800568 0.720077
v -0.567846 1.806768 -0.994038
v -0.567846 0.602216 2.087380
v -0.868401 1.653678 0.906335
v -0.567846 1.628597 -1.080911
v -0.868401 0.602215 -1.047252
v -0.868400 1.654839 -0.919240
v -0.567846 1.923940 -0.763969
v -0.567846 1.304765 2.080753
v -5.064009 1.806167 -0.723578
v -5.064009 0.602215 1.020929
v -4.405725 0.602216 -2.176492
v -4.546363 1.923940 0.757069
v -4.546363 1.806768 0.987137
v -4.546363 1.628597 1.074010
v -5.064010 1.800568 0.720077
v -4.546363 1.806768 -0.994038
v -4.379631 0.602216 2.087380
v -5.064009 1.653678 0.906335
v -4.546363 1.628597 -1.080911
v -5.064009 0.602215 -1.047252
v -5.064008 1.654839 -0.919240
v -4.546363 1.923940 -0.763969
v -4.379631 1.304765 2.080753
v -0.588871 0.047699 -2.142668
v -0.588871 1.311738 -2.142668
v -0.855920 0.292131 -3.103955
v -0.855920 1.067306 -3.103955
v -4.404368 0.047699 -2.142668
v -4.404368 1.311738 -2.142668
v -4.263042 0.292131 -3.103956
v -4.263042 1.067306 -3.103956
v -4.000806 0.911156 -3.103955
v -4.000806 0.414986 -3.103955
v -2.990706 0.414987 -3.103955
v -2.990706 0.911156 -3.103955
v -4.000806 0.911156 -3.175999
v -4.000806 0.414986 -3.175999
v -2.990706 0.414987 -3.175999
v -2.990706 0.911156 -3.175999
v -0.617000 1.151036 -2.243920
v -0.821664 0.969249 -2.980636
v -0.821664 0.375972 -2.980636
v -0.622318 0.189478 -2.263056
v -0.752950 1.151036 -2.195601
v -0.954300 0.969249 -2.980837
v -0.954300 0.375972 -2.980837
v -0.758268 0.189478 -2.214736
v -5.065221 1.311106 -1.104944
v 7.887205 1.230713 -1.246684
v 5.425858 1.230713 -1.246684
v 5.071180 1.311106 -1.246684
v 2.004408 1.311106 -1.111416
v 2.260486 1.311106 -1.246684
v -0.567846 1.311106 -2.175139
v -4.405725 1.311106 -2.175139
v -5.065221 0.602216 -1.038820
v -5.065221 0.602216 1.018109
v -5.065221 1.655551 -0.912374
v -5.065220 1.802943 -0.713459
v -5.065221 1.794183 0.736833
v -5.065221 1.642889 0.909895
v -5.028924 0.036840 1.264755
v -5.028924 1.661884 1.038236
v -5.028924 0.036840 -1.197897
v -5.028924 1.661884 -0.971377
v 7.002216 0.036840 1.264755
v 7.002216 1.661884 1.038236
v 7.002216 0.036840 -1.197897
v 7.002216 1.661884 -0.971377
v -3.126334 1.916512 -0.567797
v -3.126335 1.916512 0.559172
v -1.572781 1.916512 -0.567797
v -1.572781 1.916512 0.559172
v -1.572781 2.414857 0.787326
v -1.572781 2.414857 -0.795950
vn -0.3054 -0.9522 -0.0000
vn 0.0000 1.0000 0.0000
vn 1.0000 0.0000 0.0000
vn 0.0000 -0.4163 -0.9092
vn -0.0000 -0.0000 1.0000
vn 0.0000 -1.0000 0.0000
vn -0.0000 -0.4163 0.9092
vn 0.0000 0.0000 -1.0000
vn 0.0156 -0.2155 -0.9764
vn 0.0156 -0.2155 0.9764
vn 0.0116 -0.4230 0.9060
vn 0.0116 -0.4230 -0.9060
vn -0.5574 0.8303 -0.0000
vn -0.9327 -0.3607 -0.0008
vn -0.9353 0.3537 0.0007
vn 0.8349 0.5505 0.0000
vn -1.0000 0.0000 0.0000
vn 0.0000 0.8911 -0.4538
vn 0.0000 0.8911 0.4538
vn 0.9635 0.0000 0.2677
vn -0.9894 0.0000 0.1455
vn 0.0000 -0.9692 0.2464
vn 0.0000 0.9692 0.2464
vn 0.9687 -0.0003 0.2481
vn 0.0418 0.9716 -0.2331
vn 0.0398 -0.9742 -0.2221
vn -0.3348 0.0206 0.9421
vn -0.0015 -0.0000 -1.0000
vn 0.0000 0.0093 -1.0000
vn 0.9940 -0.1083 0.0128
vn 0.0000 -1.0000 -0.0039
vn 0.0000 0.4383 0.8988
vn 0.0000 0.9520 0.3062
vn 0.0000 0.8425 0.5386
vn 0.0000 1.0000 -0.0028
vn 0.0000 0.0658 0.9978
vn 0.0000 -0.8272 -0.5619
vn -0.0000 -0.0801 -0.9968
vn 0.0000 0.4383 -0.8988
vn -0.8409 0.0340 -0.5401
vn -0.8067 0.0359 0.5899
vn 0.0000 0.7371 0.6758
vn 0.0000 -0.7701 0.6379
vn 0.0000 -0.0082 1.0000
vn 0.0000 0.6048 -0.7964
vn 0.0000 0.8438 -0.5366
vn 0.0509 0.0758 0.9958
vn 0.0070 0.0109 -0.9999
vn -0.7315 -0.6818 0.0054
vn -0.0502 -0.0920 -0.9945
vn -0.0051 -0.0094 0.9999
vn 0.0000 -0.7702 0.6379
vn -0.7315 -0.6818 -0.0054
vn -0.4022 0.0907 0.9110
vn -0.4553 0.0171 -0.8902
vn -0.4155 0.4936 -0.7640
vn 0.3827 -0.9239 -0.0036
vn 0.3537 -0.7608 -0.5441
vn 0.5825 -0.0881 -0.8080
vn 0.3767 -0.0211 0.9261
vn 0.2901 -0.7446 0.6012
vn -0.1718 0.6428 0.7465
vn -0.5108 0.8597 -0.0012
vn -0.2223 0.8445 0.4872
vn -0.3901 0.7958 -0.4631
vn 0.0000 -0.0111 0.9999
vn -0.0000 -0.1083 -0.9941
vn 0.0000 0.0131 -0.9999
vn 0.0000 0.0896 0.9960
vn -0.4308 0.0894 0.8980
vn 0.0109 0.0759 0.9971
vn -0.3833 0.7708 0.5089
vn 0.0634 0.8632 0.5009
vn 0.3012 0.0579 0.9518
vn 0.3796 0.0126 -0.9251
vn -0.0023 0.4383 -0.8988
vn -0.0000 -0.7852 -0.6192
vn -0.0169 -0.0778 0.9968
vn 0.0000 -0.7910 0.6118
vn -0.0431 0.4379 0.8980
vn -0.0218 0.8909 0.4537
vn -0.0011 0.8911 -0.4538
vn 0.0000 0.0094 1.0000
vn 0.0000 0.0019 -1.0000
vn 0.0000 -0.1207 0.9927
vn -0.9635 -0.0000 0.2677
vn 0.9894 0.0000 0.1455
vn -0.9687 0.0003 0.2481
vn -0.0418 -0.9716 -0.2331
vn -0.0398 0.9742 -0.2221
vn 0.3348 -0.0206 0.9421
vn 0.0015 0.0000 -1.0000
vn 0.0000 0.9604 -0.2787
vn 0.1010 0.8651 -0.4913
vn 0.0000 -0.0258 -0.9997
vn -0.5088 0.0215 -0.8606
vn -0.0026 -0.0229 -0.9997
vn -0.4401 0.7559 -0.4846
vn 0.0000 -0.0206 -0.9998
vn 0.0000 0.1381 -0.9904
vn 0.0000 0.1381 0.9904
vn -0.0537 -0.3214 0.9454
vn 0.3005 -0.9538 0.0000
vn -0.0537 -0.3214 -0.9454
usemtl Material
s off
f 241//1 242//1 3//1 4//1
f 43//2 52//2 51//2 44//2
f 14//3 5//3 6//3 16//3
f 246//4 243//4 9//4 17//4
f 16//5 6//5 12//5 19//5
f 5//2 11//2 12//2 6//2
f 243//6 244//6 10//6 9//6
f 244//7 245//7 20//7 10//7
f 20//2 245//2 15//2 25//2 33//2 28//2
f 5//8 14//8 18//8 11//8
f 45//9 46//9 41//9 241//9 4//9 49//9 8//9 54//9 52//9 43//9
f 47//10 48//10 44//10 51//10 53//10 7//10 50//10 3//10 242//10 42//10
f 1//3 13//3 15//3 2//3
f 13//2 246//2 17//2 23//2 39//2 21//2
f 17//3 18//3 24//3 23//3
f 18//6 14//6 22//6 40//6 24//6
f 37//3 38//3 35//3 36//3
f 16//6 19//6 27//6 34//6 26//6
f 19//3 20//3 28//3 27//3
f 14//6 16//6 32//6 35//6 38//6 30//6
f 15//2 13//2 29//2 37//2 36//2 31//2
f 33//5 34//5 27//5 28//5
f 40//8 39//8 23//8 24//8
f 20//5 19//5 48//5 47//5
f 10//11 20//11 47//11 42//11
f 18//8 17//8 46//8 45//8
f 11//8 18//8 45//8 43//8
f 17//12 9//12 41//12 46//12
f 19//5 12//5 44//5 48//5
f 11//13 43//13 44//13 12//13
f 9//6 10//6 42//6 41//6
f 3//14 50//14 49//14 4//14
f 49//15 50//15 7//15 8//15
f 51//16 52//16 54//16 53//16
f 53//2 54//2 8//2 7//2
f 94//17 87//17 56//17 58//17 88//17 91//17 219//17 57//17 227//17 229//17 230//17 231//17 232//17 228//17 55//17 160//17
f 193//18 187//18 88//18 58//18
f 188//6 55//6 101//6 181//6
f 61//6 96//6 116//6 112//6
f 183//19 56//19 87//19 184//19
f 63//20 64//20 79//20 82//20 81//20 65//20
f 69//21 70//21 68//21 67//21
f 67//8 68//8 64//8 63//8
f 65//22 69//22 67//22 63//22
f 70//23 66//23 64//23 68//23
f 69//5 72//5 71//5 70//5
f 74//2 71//2 75//2 78//2
f 77//5 78//5 75//5 76//5
f 72//6 73//6 77//6 76//6
f 73//3 74//3 78//3 77//3
f 71//17 72//17 76//17 75//17
f 71//5 74//5 73//5 72//5 69//5 65//5 66//5 70//5
f 83//24 84//24 85//24 86//24
f 65//20 81//20 80//20 79//20 64//20 66//20
f 81//25 82//25 86//25 85//25
f 79//26 80//26 84//26 83//26
f 82//27 79//27 83//27 86//27
f 80//28 81//28 85//28 84//28
f 193//2 58//2 56//2 183//2
f 220//29 61//29 112//29 221//29
f 92//30 89//30 62//30 60//30 90//30 93//30 159//30 59//30 95//30 97//30 98//30 99//30 100//30 96//30 61//30 220//30
f 99//31 98//31 113//31 118//31
f 184//32 87//32 94//32 185//32
f 170//33 185//33 194//33 179//33
f 60//34 111//34 110//34 90//34
f 62//35 108//35 111//35 60//35
f 159//36 161//36 107//36 59//36
f 182//6 191//6 102//6 57//6
f 98//37 97//37 114//37 113//37
f 97//38 95//38 115//38 114//38
f 187//39 190//39 91//39 88//39
f 226//40 182//40 57//40 219//40
f 194//41 160//41 55//41 188//41
f 59//6 107//6 115//6 95//6
f 90//42 110//42 109//42 93//42
f 100//43 99//43 118//43 117//43
f 96//44 100//44 117//44 116//44
f 89//45 92//45 105//45 106//45
f 62//46 89//46 106//46 108//46
f 161//47 162//47 119//47 107//47
f 221//48 112//48 127//48 222//48
f 106//45 105//45 121//45 103//45
f 112//49 116//49 122//49 127//49
f 118//31 113//31 104//31 123//31
f 113//37 114//37 120//37 104//37
f 114//50 115//50 124//50 120//50
f 116//51 117//51 125//51 122//51
f 117//52 118//52 123//52 125//52
f 110//42 129//42 130//42 109//42
f 108//35 126//35 128//35 111//35
f 111//34 128//34 129//34 110//34
f 107//53 119//53 124//53 115//53
f 108//46 106//46 103//46 126//46
f 164//54 163//54 139//54 147//54
f 224//55 155//55 133//55 223//55
f 146//56 149//56 141//56 138//56
f 155//6 150//6 142//6 133//6
f 153//57 145//57 137//57 131//57
f 145//58 148//58 140//58 137//58
f 148//59 154//59 132//59 140//59
f 150//60 151//60 143//60 142//60
f 151//61 153//61 131//61 143//61
f 157//62 135//62 136//62 158//62
f 152//63 144//63 134//63 156//63
f 156//64 134//64 135//64 157//64
f 147//6 139//6 132//6 154//6
f 152//65 146//65 138//65 144//65
f 126//46 103//46 146//46 152//46
f 119//6 147//6 154//6 124//6
f 128//34 156//34 157//34 129//34
f 126//35 152//35 156//35 128//35
f 129//42 157//42 158//42 130//42
f 125//52 123//52 153//52 151//52
f 122//66 125//66 151//66 150//66
f 120//67 124//67 154//67 148//67
f 104//37 120//37 148//37 145//37
f 123//31 104//31 145//31 153//31
f 127//6 122//6 150//6 155//6
f 103//45 121//45 149//45 146//45
f 222//68 127//68 155//68 224//68
f 162//69 164//69 147//69 119//69
f 130//69 158//69 164//69 162//69
f 158//70 136//70 163//70 164//70
f 109//71 130//71 162//71 161//71
f 185//72 94//72 160//72 194//72
f 93//36 109//36 161//36 159//36
f 136//73 170//73 179//73 163//73
f 163//74 179//74 173//74 139//74
f 223//75 133//75 167//75 225//75
f 138//76 141//76 175//76 172//76
f 133//6 142//6 176//6 167//6
f 131//31 137//31 171//31 165//31
f 137//77 140//77 174//77 171//77
f 140//67 132//67 166//67 174//67
f 142//78 143//78 177//78 176//78
f 143//79 131//79 165//79 177//79
f 135//80 169//80 170//80 136//80
f 144//2 178//2 168//2 134//2
f 134//81 168//81 169//81 135//81
f 139//6 173//6 166//6 132//6
f 144//82 138//82 172//82 178//82
f 179//83 194//83 188//83 173//83
f 225//84 167//84 182//84 226//84
f 172//39 175//39 190//39 187//39
f 167//6 176//6 191//6 182//6
f 165//31 171//31 186//31 180//31
f 171//77 174//77 189//77 186//77
f 174//67 166//67 181//67 189//67
f 176//85 177//85 192//85 191//85
f 177//79 165//79 180//79 192//79
f 169//32 184//32 185//32 170//32
f 178//2 193//2 183//2 168//2
f 168//19 183//19 184//19 169//19
f 173//6 188//6 181//6 166//6
f 178//18 172//18 187//18 193//18
f 195//86 196//86 211//86 214//86 213//86 197//86
f 201//87 202//87 200//87 199//87
f 199//8 200//8 196//8 195//8
f 197//23 201//23 199//23 195//23
f 202//22 198//22 196//22 200//22
f 201//5 204//5 203//5 202//5
f 206//6 203//6 207//6 210//6
f 209//5 210//5 207//5 208//5
f 204//2 205//2 209//2 208//2
f 205//17 206//17 210//17 209//17
f 203//3 204//3 208//3 207//3
f 203//5 206//5 205//5 204//5 201//5 197//5 198//5 202//5
f 215//88 216//88 217//88 218//88
f 197//86 213//86 212//86 211//86 196//86 198//86
f 213//89 214//89 218//89 217//89
f 211//90 212//90 216//90 215//90
f 214//91 211//91 215//91 218//91
f 212//92 213//92 217//92 216//92
f 175//93 225//93 226//93 190//93
f 141//94 223//94 225//94 175//94
f 121//95 222//95 224//95 149//95
f 149//96 224//96 223//96 141//96
f 105//97 221//97 222//97 121//97
f 190//98 226//98 219//98 91//98
f 92//99 220//99 221//99 105//99
f 233//17 234//17 236//17 235//17
f 235//100 236//100 240//100 239//100
f 239//3 240//3 238//3 237//3
f 237//101 238//101 234//101 233//101
f 235//6 239//6 237//6 233//6
f 240//2 236//2 234//2 238//2
f 41//6 42//6 242//6 241//6
f 2//102 15//102 245//102 244//102
f 1//103 2//103 244//103 243//103
f 13//104 1//104 243//104 246//104
