# Blender v2.79 (sub 0) OBJ File: 'Asteroid.blend'
# www.blender.org
mtllib Asteroid.mtl
o Cube
v 0.998064 -1.466689 -1.616196
v 0.877866 -1.312746 1.463712
v -0.916205 -1.298703 1.554389
v -0.921551 -1.269178 -1.392231
v 1.395438 0.956281 -1.444059
v 0.877866 0.687254 1.463713
v -0.598154 0.697886 2.330675
v -1.000000 1.000000 -1.683993
v 1.502126 -1.508503 -0.510732
v 1.261460 -2.180276 -0.051232
v 1.265460 -1.824822 0.509265
v -1.660197 -2.383672 0.536226
v -0.954072 -2.472522 -0.356608
v -1.051858 -1.627283 -1.139388
v 1.133691 1.627052 -0.741997
v 1.679307 2.169644 0.085070
v 1.679307 1.658722 0.585070
v -1.444255 0.673596 1.406142
v -1.803620 2.209532 0.342420
v -1.613630 2.264037 -0.447735
v 1.107114 -1.268677 -1.836734
v 1.080965 -0.512285 -1.933988
v 0.892404 -1.085716 1.753556
v 0.892403 -0.419049 1.753556
v -1.648753 -1.085716 1.753555
v -1.273234 -0.481418 2.177523
v -0.812502 -1.071166 -1.612769
v -0.838651 -0.314774 -1.710023
v -2.306831 -0.731663 0.858423
v -2.269333 -1.564899 0.470817
v -1.831552 -0.436038 -0.074712
v -1.165115 -1.634212 -0.395614
v -1.670903 0.148498 -0.956466
v -1.174669 -0.910463 -1.216476
v 2.059462 0.253501 -0.664909
v 2.182274 -0.791683 -0.587821
v 2.440980 0.391305 0.039636
v 2.399694 -1.058668 -0.005798
v 1.642695 0.151482 1.089434
v 1.403409 -0.992006 0.534534
v 0.502961 -1.415747 -1.558432
v -0.136911 -1.349910 -1.483776
v 0.386562 -1.114957 1.488663
v -0.233708 -1.509218 1.377530
v 0.324479 0.499104 -2.077325
v -0.315393 0.564941 -2.002670
v 0.609155 0.384019 1.814854
v 0.090950 0.457019 2.257849
v -0.417057 1.964657 -0.328561
v 0.378660 1.001132 -0.817195
v -0.207997 1.839820 1.157483
v 0.870663 1.682455 0.071473
v -0.064054 1.148203 1.508402
v 0.871614 1.510963 0.568636
v 0.747095 -1.535585 -0.585930
v -0.228707 -1.570586 -0.683116
v 0.746804 -1.964319 -0.064829
v -0.298286 -2.236532 -0.082401
v 0.482299 -1.774793 0.517782
v -0.355634 -1.951714 0.587220
v 0.485827 -0.815669 -2.103355
v -0.154045 -0.749832 -1.204214
v 0.612010 -1.217736 -1.778969
v -0.027862 -1.151899 -1.704314
v 0.236993 -1.085716 1.753556
v -0.610059 -1.085716 1.753555
v 0.484118 -0.722284 2.104697
v -0.362934 -0.722284 2.104697
vn 0.1260 -0.7868 0.6042
vn -0.1077 0.8998 0.4228
vn 0.5561 0.2374 0.7965
vn 0.0448 -0.1497 0.9877
vn -0.7750 0.0743 -0.6276
vn -0.1534 -0.6964 -0.7011
vn -0.7515 0.2858 0.5946
vn -0.9756 0.1871 0.1150
vn -0.9812 0.0536 -0.1853
vn 0.8367 0.2507 -0.4869
vn 0.7103 0.3743 -0.5962
vn 0.8049 0.2526 0.5370
vn 0.2246 0.7457 -0.6273
vn 0.2085 0.9751 0.0751
vn -0.2751 0.4704 0.8385
vn 0.0922 -0.8808 -0.4645
vn 0.4467 -0.5996 -0.6641
vn 0.2523 -0.9060 0.3399
vn 0.5926 -0.4120 0.6922
vn 0.6570 -0.2368 0.7157
vn 0.5989 -0.6015 -0.5288
vn 0.9072 0.0243 -0.4199
vn 0.6634 -0.6764 -0.3200
vn 0.7743 0.0028 -0.6329
vn -0.9645 -0.2182 -0.1489
vn -0.8663 -0.3560 -0.3504
vn -0.6640 -0.3696 -0.6500
vn -0.7494 -0.0290 -0.6614
vn -0.4115 -0.6215 0.6666
vn -0.8220 -0.1209 0.5565
vn -0.0519 -0.2873 -0.9564
vn 0.3656 0.3482 -0.8632
vn -0.7450 -0.2165 -0.6310
vn -0.7250 -0.1483 -0.6726
vn -0.0073 -0.6774 0.7356
vn -0.0453 -0.6066 0.7937
vn 0.8774 -0.2483 0.4105
vn 0.8424 -0.2566 0.4738
vn 0.3858 -0.3792 0.8411
vn -0.0000 -0.6948 0.7192
vn -0.1488 -0.9110 0.3846
vn 0.1509 -0.7448 0.6500
vn 0.1690 -0.3174 -0.9331
vn -0.6066 -0.0167 -0.7949
vn 0.3730 0.1492 -0.9157
vn -0.5979 -0.2926 -0.7462
vn -0.1865 -0.9027 0.3878
vn 0.2234 -0.8911 0.3950
vn -0.0455 -0.6590 -0.7508
vn 0.1473 -0.7125 -0.6861
vn -0.0180 -0.9973 -0.0711
vn -0.0161 -0.9822 -0.1872
vn -0.3173 0.7825 0.5358
vn 0.5078 0.6457 0.5704
vn -0.5550 0.7983 -0.2338
vn 0.2920 0.9085 -0.2991
vn -0.2812 0.8103 -0.5141
vn 0.3651 0.7839 -0.5022
vn 0.6344 0.1661 0.7550
vn 0.3076 -0.0210 0.9513
vn -0.0970 0.7320 0.6743
vn 0.4544 0.6462 0.6132
vn -0.1546 -0.8607 0.4851
vn 0.3029 -0.8099 0.5024
usemtl Material
s off
f 60//1 44//1 3//1 12//1
f 53//2 18//2 7//2 48//2
f 39//3 17//3 6//3 24//3
f 68//4 48//4 7//4 26//4
f 33//5 20//5 8//5 28//5
f 64//6 42//6 4//6 27//6
f 26//7 7//7 18//7 29//7
f 29//8 18//8 19//8 31//8
f 31//9 19//9 20//9 33//9
f 22//10 5//10 15//10 35//10
f 35//11 15//11 16//11 37//11
f 37//12 16//12 17//12 39//12
f 46//13 8//13 20//13 49//13
f 49//14 20//14 19//14 51//14
f 51//15 19//15 18//15 53//15
f 42//16 56//16 14//16 4//16
f 56//17 58//17 13//17 14//17
f 58//18 60//18 12//18 13//18
f 10//19 38//19 40//19 11//19
f 38//20 37//20 39//20 40//20
f 9//21 36//21 38//21 10//21
f 36//22 35//22 37//22 38//22
f 1//23 21//23 36//23 9//23
f 21//24 22//24 35//24 36//24
f 13//25 32//25 34//25 14//25
f 32//26 31//26 33//26 34//26
f 12//27 30//27 32//27 13//27
f 30//28 29//28 31//28 32//28
f 3//29 25//29 30//29 12//29
f 25//30 26//30 29//30 30//30
f 46//31 62//31 28//31 8//31
f 62//32 64//32 27//32 28//32
f 14//33 34//33 27//33 4//33
f 34//34 33//34 28//34 27//34
f 44//35 66//35 25//35 3//35
f 66//36 68//36 26//36 25//36
f 11//37 40//37 23//37 2//37
f 40//38 39//38 24//38 23//38
f 23//39 24//39 67//39 65//39
f 65//40 67//40 68//40 66//40
f 2//41 23//41 65//41 43//41
f 43//42 65//42 66//42 44//42
f 22//43 21//43 63//43 61//43
f 61//44 63//44 64//44 62//44
f 5//45 22//45 61//45 45//45
f 45//46 61//46 62//46 46//46
f 10//47 11//47 59//47 57//47
f 57//48 59//48 60//48 58//48
f 9//49 10//49 57//49 55//49
f 55//50 57//50 58//50 56//50
f 1//51 9//51 55//51 41//51
f 41//52 55//52 56//52 42//52
f 16//53 52//53 54//53 17//53
f 52//54 51//54 53//54 54//54
f 15//55 50//55 52//55 16//55
f 50//56 49//56 51//56 52//56
f 5//57 45//57 50//57 15//57
f 45//58 46//58 49//58 50//58
f 21//6 1//6 41//6 63//6
f 63//6 41//6 42//6 64//6
f 24//59 6//59 47//59 67//59
f 67//60 47//60 48//60 68//60
f 17//61 54//61 47//61 6//61
f 54//62 53//62 48//62 47//62
f 11//63 2//63 43//63 59//63
f 59//64 43//64 44//64 60//64
