# Blender v2.79 (sub 0) OBJ File: 'CapitolShip.blend'
# www.blender.org
mtllib CapitolShip.mtl
o Cube
v -0.680714 2.099391 -0.706393
v -0.680714 2.099391 0.697763
v -3.906954 2.099391 0.697762
v -3.906954 2.099391 -0.706394
v -0.680714 2.692045 -0.706393
v -0.680715 2.692045 0.697763
v -3.906955 2.636838 0.697762
v -3.906954 2.636838 -0.706393
v -2.187723 1.874102 -0.706394
v -2.187723 1.874102 0.697763
v -2.187722 2.692045 -0.706393
v -2.187724 2.692045 0.697763
v -0.680714 2.254812 -0.706393
v -0.680714 2.504244 -0.706393
v -0.680714 2.254812 0.697763
v -0.680715 2.504244 0.697763
v -2.187723 2.254812 -0.706393
v -2.187723 2.504244 -0.706393
v -2.187724 2.504244 0.697763
v -2.187723 2.254812 0.697763
v -0.680714 2.254812 -0.583554
v -0.680714 2.504244 -0.583554
v -2.187723 2.254812 -0.583554
v -2.187723 2.504244 -0.583554
v -0.680714 2.254812 0.574899
v -0.680715 2.504244 0.574899
v -2.187724 2.504244 0.574899
v -2.187723 2.254812 0.574899
v -0.805219 2.254812 -0.706393
v -0.805219 2.504244 -0.706393
v -0.805220 2.254812 0.697763
v -0.805220 2.504244 0.697763
v -0.805393 2.254812 0.574899
v -0.805254 2.504244 0.574899
v -0.805220 2.504244 0.574300
v -0.805220 2.254812 0.574832
v -0.805219 2.254812 -0.583697
v -0.805219 2.504244 -0.583723
v -0.805503 2.254812 -0.583554
v -0.805569 2.504244 -0.583554
v -2.505154 1.874102 -0.706394
v -2.505154 1.874102 0.697763
v -2.505154 2.478047 -0.706393
v -2.505155 2.478047 0.697763
v -2.505154 2.390877 -0.706393
v -2.505154 2.237400 -0.706393
v -2.505155 2.237400 0.697763
v -2.505155 2.390877 0.697763
v -4.009296 2.368080 -0.706393
v -4.009296 2.362114 0.697762
v -3.571760 2.478047 0.697762
v -3.571760 2.478047 -0.706393
v -3.676025 2.636838 0.697762
v -3.676025 2.636838 -0.706393
v -5.065221 0.602216 1.185967
v -5.065221 1.923940 0.757069
v -5.065221 0.602216 -1.192867
v -5.065221 1.923940 -0.763969
v 7.680264 0.227711 1.415352
v 7.943771 2.078156 0.757069
v 7.680264 0.227711 -1.255981
v 7.943771 2.073910 -0.757135
v -0.585272 0.048253 2.065711
v -0.585272 1.312292 2.065711
v -0.852320 0.292685 3.026999
v -0.852320 1.067860 3.026999
v -4.400768 0.048253 2.065711
v -4.400768 1.312292 2.065711
v -4.259443 0.292685 3.026999
v -4.259443 1.067860 3.026999
v -3.997206 0.911709 3.026999
v -3.997206 0.415540 3.026999
v -2.987106 0.415540 3.026998
v -2.987106 0.911709 3.026998
v -3.997206 0.911709 3.099043
v -3.997206 0.415540 3.099043
v -2.987106 0.415540 3.099043
v -2.987106 0.911709 3.099043
v -0.613400 1.151589 2.166964
v -0.818064 0.969803 2.903679
v -0.818064 0.376526 2.903679
v -0.618718 0.190032 2.186099
v -0.749350 1.151590 2.118644
v -0.950700 0.969803 2.903880
v -0.950700 0.376526 2.903881
v -0.754668 0.190032 2.137779
v -5.065221 1.806768 0.987137
v -5.065221 1.806768 -0.994038
v 7.943771 1.877671 -1.065719
v 7.943771 1.918561 1.006708
v -5.065221 1.628597 -1.080911
v 7.943771 1.628597 -1.254882
v 7.943771 1.628597 1.322966
v -5.065221 1.628597 1.074010
v 7.680264 0.227711 1.215600
v 7.680264 0.227711 -1.053008
v 7.943772 1.653679 1.101007
v 7.943771 1.912436 0.720077
v 7.943771 1.918035 -0.723578
v 7.943772 1.654840 -1.041358
v -5.064009 0.602215 1.020929
v -5.064009 0.602215 -1.047252
v 5.071180 1.877671 -1.065719
v 5.078322 1.912435 0.720077
v 5.425858 1.628597 -1.254882
v 5.425858 1.877671 -1.065719
v 5.425858 0.227711 1.415352
v 5.425858 2.073910 -0.757135
v 5.425858 1.628597 1.322966
v 5.425858 1.918561 1.006708
v 5.425858 2.078156 0.757069
v 5.425858 0.227711 -1.255981
v 5.421690 1.912435 0.720077
v 5.421690 1.653678 1.101007
v 5.421690 0.227711 1.215600
v 5.421690 0.227711 -1.053007
v 5.421691 1.654839 -1.041358
v 5.421690 1.918035 -0.723578
v 5.071180 0.602216 1.415352
v 5.078323 1.653678 1.101007
v 5.071180 1.628597 -1.254882
v 5.078323 0.602215 -1.053007
v 5.078323 1.918035 -0.723578
v 5.078323 0.602215 1.215600
v 5.078324 1.654839 -1.041358
v 5.071180 2.073910 -0.757135
v 5.071180 0.602216 -1.255981
v 5.071180 2.078156 0.757069
v 5.071180 1.918561 1.006708
v 5.071180 1.628597 1.322966
v 1.840501 1.806167 -0.723578
v 1.840501 0.602215 1.020928
v 2.004407 0.602216 -1.129324
v 2.004407 1.923940 0.880536
v 2.004407 1.806768 1.110605
v 2.004407 1.628597 1.197478
v 1.840500 1.800568 0.720077
v 2.004408 1.806768 -1.000510
v 2.004408 0.602216 1.309434
v 1.840501 1.653678 0.906335
v 2.004408 1.628597 -1.087383
v 1.840501 0.602215 -0.955456
v 1.840502 1.654839 -0.919240
v 2.004408 1.923940 -0.770441
v 2.110552 1.912435 0.720077
v 2.260486 1.877671 -1.065719
v 2.260486 0.602216 1.415352
v 2.110553 1.653678 1.101007
v 2.260486 1.628597 -1.254882
v 2.110553 0.602215 -1.053007
v 2.110554 1.654839 -1.041358
v 2.260486 2.073910 -0.757135
v 2.110552 1.918035 -0.723578
v 2.110552 0.602215 1.215600
v 2.260485 0.602216 -1.255981
v 2.260485 2.078156 0.757069
v 2.260485 1.918561 1.006708
v 2.260485 1.628597 1.322966
v 7.872387 1.249093 1.347994
v -5.065221 1.350548 1.104340
v 5.425858 1.249093 1.347994
v 5.071180 1.350548 1.347994
v 2.004407 1.350548 1.227807
v 2.260486 1.350548 1.347994
v -0.868401 1.806167 -0.723578
v -0.868401 0.602215 1.020928
v -0.567847 0.602216 -2.176492
v -0.567847 1.923940 0.757069
v -0.567847 1.806768 0.987137
v -0.567847 1.628597 1.074010
v -0.868402 1.800568 0.720077
v -0.567846 1.806768 -0.994038
v -0.567846 0.602216 2.087380
v -0.868401 1.653678 0.906335
v -0.567846 1.628597 -1.080911
v -0.868401 0.602215 -1.047252
v -0.868400 1.654839 -0.919240
v -0.567846 1.923940 -0.763969
v -0.567846 1.304765 2.080753
v -5.064009 1.806167 -0.723578
v -5.064009 0.602215 1.020929
v -4.405725 0.602216 -2.176492
v -4.546363 1.923940 0.757069
v -4.546363 1.806768 0.987137
v -4.546363 1.628597 1.074010
v -5.064010 1.800568 0.720077
v -4.546363 1.806768 -0.994038
v -4.379631 0.602216 2.087380
v -5.064009 1.653678 0.906335
v -4.546363 1.628597 -1.080911
v -5.064009 0.602215 -1.047252
v -5.064008 1.654839 -0.919240
v -4.546363 1.923940 -0.763969
v -4.379631 1.304765 2.080753
v -0.588871 0.047699 -2.142668
v -0.588871 1.311738 -2.142668
v -0.855920 0.292131 -3.103955
v -0.855920 1.067306 -3.103955
v -4.404368 0.047699 -2.142668
v -4.404368 1.311738 -2.142668
v -4.263042 0.292131 -3.103956
v -4.263042 1.067306 -3.103956
v -4.000806 0.911156 -3.103955
v -4.000806 0.414986 -3.103955
v -2.990706 0.414987 -3.103955
v -2.990706 0.911156 -3.103955
v -4.000806 0.911156 -3.175999
v -4.000806 0.414986 -3.175999
v -2.990706 0.414987 -3.175999
v -2.990706 0.911156 -3.175999
v -0.617000 1.151036 -2.243920
v -0.821664 0.969249 -2.980636
v -0.821664 0.375972 -2.980636
v -0.622318 0.189478 -2.263056
v -0.752950 1.151036 -2.195601
v -0.954300 0.969249 -2.980837
v -0.954300 0.375972 -2.980837
v -0.758268 0.189478 -2.214736
v -5.065221 1.311106 -1.104944
v 7.887205 1.230713 -1.246684
v 5.425858 1.230713 -1.246684
v 5.071180 1.311106 -1.246684
v 2.004408 1.311106 -1.111416
v 2.260486 1.311106 -1.246684
v -0.567846 1.311106 -2.175139
v -4.405725 1.311106 -2.175139
v -5.065221 0.602216 -1.038820
v -5.065221 0.602216 1.018109
v -5.065221 1.655551 -0.912374
v -5.065220 1.802943 -0.713459
v -5.065221 1.794183 0.736833
v -5.065221 1.642889 0.909895
v -5.028924 0.036840 1.264755
v -5.028924 1.661884 1.038236
v -5.028924 0.036840 -1.197897
v -5.028924 1.661884 -0.971377
v 7.002216 0.036840 1.264755
v 7.002216 1.661884 1.038236
v 7.002216 0.036840 -1.197897
v 7.002216 1.661884 -0.971377
vn -0.1587 -0.9873 -0.0000
vn 0.0000 1.0000 0.0000
vn 1.0000 0.0000 0.0000
vn 0.0000 0.0000 -1.0000
vn -0.0000 -0.0000 1.0000
vn 0.1479 -0.9890 0.0000
vn 0.0000 -1.0000 0.0000
vn -0.5590 0.8292 -0.0000
vn -0.9332 -0.3594 -0.0008
vn -0.9358 0.3524 0.0007
vn 0.8359 0.5489 0.0000
vn -1.0000 0.0000 0.0000
vn 0.0000 0.8911 -0.4538
vn 0.0000 0.8911 0.4538
vn 0.9635 0.0000 0.2677
vn -0.9894 0.0000 0.1455
vn 0.0000 -0.9692 0.2464
vn 0.0000 0.9692 0.2464
vn 0.9687 -0.0003 0.2481
vn 0.0418 0.9716 -0.2331
vn 0.0398 -0.9742 -0.2221
vn -0.3348 0.0206 0.9421
vn -0.0015 -0.0000 -1.0000
vn 0.0000 0.0093 -1.0000
vn 0.9940 -0.1083 0.0128
vn 0.0000 -1.0000 -0.0039
vn 0.0000 0.4383 0.8988
vn 0.0000 0.9520 0.3062
vn 0.0000 0.8425 0.5386
vn 0.0000 1.0000 -0.0028
vn 0.0000 0.0658 0.9978
vn 0.0000 -0.8272 -0.5619
vn -0.0000 -0.0801 -0.9968
vn 0.0000 0.4383 -0.8988
vn -0.8409 0.0340 -0.5401
vn -0.8067 0.0359 0.5899
vn 0.0000 0.7371 0.6758
vn 0.0000 -0.7701 0.6379
vn 0.0000 -0.0082 1.0000
vn 0.0000 0.6048 -0.7964
vn 0.0000 0.8438 -0.5366
vn 0.0509 0.0758 0.9958
vn 0.0070 0.0109 -0.9999
vn -0.7315 -0.6818 0.0054
vn -0.0502 -0.0920 -0.9945
vn -0.0051 -0.0094 0.9999
vn 0.0000 -0.7702 0.6379
vn -0.7315 -0.6818 -0.0054
vn -0.4022 0.0907 0.9110
vn -0.4553 0.0171 -0.8902
vn -0.4155 0.4936 -0.7640
vn 0.3827 -0.9239 -0.0036
vn 0.3537 -0.7608 -0.5441
vn 0.5825 -0.0881 -0.8080
vn 0.3767 -0.0211 0.9261
vn 0.2901 -0.7446 0.6012
vn -0.1718 0.6428 0.7465
vn -0.5108 0.8597 -0.0012
vn -0.2223 0.8445 0.4872
vn -0.3901 0.7958 -0.4631
vn 0.0000 -0.0111 0.9999
vn -0.0000 -0.1083 -0.9941
vn 0.0000 0.0131 -0.9999
vn 0.0000 0.0896 0.9960
vn -0.4308 0.0894 0.8980
vn 0.0109 0.0759 0.9971
vn -0.3833 0.7708 0.5089
vn 0.0634 0.8632 0.5009
vn 0.3012 0.0579 0.9518
vn 0.3796 0.0126 -0.9251
vn -0.0023 0.4383 -0.8988
vn -0.0000 -0.7852 -0.6192
vn -0.0169 -0.0778 0.9968
vn 0.0000 -0.7910 0.6118
vn -0.0431 0.4379 0.8980
vn -0.0218 0.8909 0.4537
vn -0.0011 0.8911 -0.4538
vn 0.0000 0.0094 1.0000
vn 0.0000 0.0019 -1.0000
vn 0.0000 -0.1207 0.9927
vn 0.9635 0.0000 -0.2677
vn -0.9894 0.0000 -0.1455
vn 0.0000 -0.9692 -0.2464
vn 0.0000 0.9692 -0.2464
vn 0.9687 -0.0003 -0.2481
vn 0.0418 0.9716 0.2331
vn 0.0398 -0.9742 0.2221
vn -0.3348 0.0206 -0.9421
vn -0.0015 -0.0000 1.0000
vn 0.0000 0.9604 -0.2787
vn 0.1010 0.8651 -0.4913
vn 0.0000 -0.0258 -0.9997
vn -0.5088 0.0215 -0.8606
vn -0.0026 -0.0229 -0.9997
vn -0.4401 0.7559 -0.4846
vn 0.0000 -0.0206 -0.9998
vn 0.0000 0.1381 -0.9904
vn 0.0000 0.1381 0.9904
usemtl Material
s off
f 41//1 42//1 3//1 4//1
f 43//2 52//2 51//2 44//2
f 14//3 5//3 6//3 16//3
f 13//4 1//4 9//4 17//4
f 16//5 6//5 12//5 19//5
f 5//2 11//2 12//2 6//2
f 1//6 2//6 10//6 9//6
f 2//5 15//5 20//5 10//5
f 20//2 15//2 25//2 33//2 28//2
f 5//4 14//4 18//4 11//4
f 45//4 46//4 41//4 4//4 49//4 8//4 54//4 52//4 43//4
f 47//5 48//5 44//5 51//5 53//5 7//5 50//5 3//5 42//5
f 1//3 13//3 15//3 2//3
f 13//2 17//2 23//2 39//2 21//2
f 17//3 18//3 24//3 23//3
f 18//7 14//7 22//7 40//7 24//7
f 37//3 38//3 35//3 36//3
f 16//7 19//7 27//7 34//7 26//7
f 19//3 20//3 28//3 27//3
f 14//7 16//7 32//7 35//7 38//7 30//7
f 15//2 13//2 29//2 37//2 36//2 31//2
f 33//5 34//5 27//5 28//5
f 40//4 39//4 23//4 24//4
f 20//5 19//5 48//5 47//5
f 10//5 20//5 47//5 42//5
f 18//4 17//4 46//4 45//4
f 11//4 18//4 45//4 43//4
f 17//4 9//4 41//4 46//4
f 19//5 12//5 44//5 48//5
f 11//8 43//8 44//8 12//8
f 9//7 10//7 42//7 41//7
f 3//9 50//9 49//9 4//9
f 49//10 50//10 7//10 8//10
f 51//11 52//11 54//11 53//11
f 53//2 54//2 8//2 7//2
f 94//12 87//12 56//12 58//12 88//12 91//12 219//12 57//12 227//12 229//12 230//12 231//12 232//12 228//12 55//12 160//12
f 193//13 187//13 88//13 58//13
f 188//7 55//7 101//7 181//7
f 61//7 96//7 116//7 112//7
f 183//14 56//14 87//14 184//14
f 63//15 64//15 79//15 82//15 81//15 65//15
f 69//16 70//16 68//16 67//16
f 67//4 68//4 64//4 63//4
f 65//17 69//17 67//17 63//17
f 70//18 66//18 64//18 68//18
f 69//5 72//5 71//5 70//5
f 74//2 71//2 75//2 78//2
f 77//5 78//5 75//5 76//5
f 72//7 73//7 77//7 76//7
f 73//3 74//3 78//3 77//3
f 71//12 72//12 76//12 75//12
f 71//5 74//5 73//5 72//5 69//5 65//5 66//5 70//5
f 83//19 84//19 85//19 86//19
f 65//15 81//15 80//15 79//15 64//15 66//15
f 81//20 82//20 86//20 85//20
f 79//21 80//21 84//21 83//21
f 82//22 79//22 83//22 86//22
f 80//23 81//23 85//23 84//23
f 193//2 58//2 56//2 183//2
f 220//24 61//24 112//24 221//24
f 92//25 89//25 62//25 60//25 90//25 93//25 159//25 59//25 95//25 97//25 98//25 99//25 100//25 96//25 61//25 220//25
f 99//26 98//26 113//26 118//26
f 184//27 87//27 94//27 185//27
f 170//28 185//28 194//28 179//28
f 60//29 111//29 110//29 90//29
f 62//30 108//30 111//30 60//30
f 159//31 161//31 107//31 59//31
f 182//7 191//7 102//7 57//7
f 98//32 97//32 114//32 113//32
f 97//33 95//33 115//33 114//33
f 187//34 190//34 91//34 88//34
f 226//35 182//35 57//35 219//35
f 194//36 160//36 55//36 188//36
f 59//7 107//7 115//7 95//7
f 90//37 110//37 109//37 93//37
f 100//38 99//38 118//38 117//38
f 96//39 100//39 117//39 116//39
f 89//40 92//40 105//40 106//40
f 62//41 89//41 106//41 108//41
f 161//42 162//42 119//42 107//42
f 221//43 112//43 127//43 222//43
f 106//40 105//40 121//40 103//40
f 112//44 116//44 122//44 127//44
f 118//26 113//26 104//26 123//26
f 113//32 114//32 120//32 104//32
f 114//45 115//45 124//45 120//45
f 116//46 117//46 125//46 122//46
f 117//47 118//47 123//47 125//47
f 110//37 129//37 130//37 109//37
f 108//30 126//30 128//30 111//30
f 111//29 128//29 129//29 110//29
f 107//48 119//48 124//48 115//48
f 108//41 106//41 103//41 126//41
f 164//49 163//49 139//49 147//49
f 224//50 155//50 133//50 223//50
f 146//51 149//51 141//51 138//51
f 155//7 150//7 142//7 133//7
f 153//52 145//52 137//52 131//52
f 145//53 148//53 140//53 137//53
f 148//54 154//54 132//54 140//54
f 150//55 151//55 143//55 142//55
f 151//56 153//56 131//56 143//56
f 157//57 135//57 136//57 158//57
f 152//58 144//58 134//58 156//58
f 156//59 134//59 135//59 157//59
f 147//7 139//7 132//7 154//7
f 152//60 146//60 138//60 144//60
f 126//41 103//41 146//41 152//41
f 119//7 147//7 154//7 124//7
f 128//29 156//29 157//29 129//29
f 126//30 152//30 156//30 128//30
f 129//37 157//37 158//37 130//37
f 125//47 123//47 153//47 151//47
f 122//61 125//61 151//61 150//61
f 120//62 124//62 154//62 148//62
f 104//32 120//32 148//32 145//32
f 123//26 104//26 145//26 153//26
f 127//7 122//7 150//7 155//7
f 103//40 121//40 149//40 146//40
f 222//63 127//63 155//63 224//63
f 162//64 164//64 147//64 119//64
f 130//64 158//64 164//64 162//64
f 158//65 136//65 163//65 164//65
f 109//66 130//66 162//66 161//66
f 185//67 94//67 160//67 194//67
f 93//31 109//31 161//31 159//31
f 136//68 170//68 179//68 163//68
f 163//69 179//69 173//69 139//69
f 223//70 133//70 167//70 225//70
f 138//71 141//71 175//71 172//71
f 133//7 142//7 176//7 167//7
f 131//26 137//26 171//26 165//26
f 137//72 140//72 174//72 171//72
f 140//62 132//62 166//62 174//62
f 142//73 143//73 177//73 176//73
f 143//74 131//74 165//74 177//74
f 135//75 169//75 170//75 136//75
f 144//2 178//2 168//2 134//2
f 134//76 168//76 169//76 135//76
f 139//7 173//7 166//7 132//7
f 144//77 138//77 172//77 178//77
f 179//78 194//78 188//78 173//78
f 225//79 167//79 182//79 226//79
f 172//34 175//34 190//34 187//34
f 167//7 176//7 191//7 182//7
f 165//26 171//26 186//26 180//26
f 171//72 174//72 189//72 186//72
f 174//62 166//62 181//62 189//62
f 176//80 177//80 192//80 191//80
f 177//74 165//74 180//74 192//74
f 169//27 184//27 185//27 170//27
f 178//2 193//2 183//2 168//2
f 168//14 183//14 184//14 169//14
f 173//7 188//7 181//7 166//7
f 178//13 172//13 187//13 193//13
f 195//81 197//81 213//81 214//81 211//81 196//81
f 201//82 199//82 200//82 202//82
f 199//5 195//5 196//5 200//5
f 197//83 195//83 199//83 201//83
f 202//84 200//84 196//84 198//84
f 201//4 202//4 203//4 204//4
f 206//2 210//2 207//2 203//2
f 209//4 208//4 207//4 210//4
f 204//7 208//7 209//7 205//7
f 205//3 209//3 210//3 206//3
f 203//12 207//12 208//12 204//12
f 203//4 202//4 198//4 197//4 201//4 204//4 205//4 206//4
f 215//85 218//85 217//85 216//85
f 197//81 198//81 196//81 211//81 212//81 213//81
f 213//86 217//86 218//86 214//86
f 211//87 215//87 216//87 212//87
f 214//88 218//88 215//88 211//88
f 212//89 216//89 217//89 213//89
f 175//90 225//90 226//90 190//90
f 141//91 223//91 225//91 175//91
f 121//92 222//92 224//92 149//92
f 149//93 224//93 223//93 141//93
f 105//94 221//94 222//94 121//94
f 190//95 226//95 219//95 91//95
f 92//96 220//96 221//96 105//96
f 233//12 234//12 236//12 235//12
f 235//97 236//97 240//97 239//97
f 239//3 240//3 238//3 237//3
f 237//98 238//98 234//98 233//98
f 235//7 239//7 237//7 233//7
f 240//2 236//2 234//2 238//2
