# Blender v2.79 (sub 0) OBJ File: ''
# www.blender.org
mtllib Shuttle.mtl
o Cube.005
v -0.266325 3.956301 4.516624
v -0.266325 4.921126 4.516624
v -0.266325 3.956301 1.492377
v -0.266325 4.133637 1.492377
v 0.263441 3.956301 4.516624
v 0.263441 4.921126 4.516624
v 0.263441 3.956301 1.492377
v 0.263441 4.133637 1.492377
v -0.266325 4.921126 3.423754
v 0.263441 4.921126 3.423751
vn -1.0000 0.0000 0.0000
vn 0.0000 0.0000 -1.0000
vn 1.0000 -0.0000 0.0000
vn 0.0000 0.0000 1.0000
vn 0.0000 -1.0000 0.0000
vn -0.0000 0.9260 -0.3776
vn 0.0000 1.0000 0.0000
usemtl None
s off
f 1//1 2//1 9//1 4//1 3//1
f 3//2 4//2 8//2 7//2
f 7//3 8//3 10//3 6//3 5//3
f 5//4 6//4 2//4 1//4
f 3//5 7//5 5//5 1//5
f 8//6 4//6 9//6 10//6
f 10//7 9//7 2//7 6//7
o Cube.004
v 2.345542 1.394613 1.498653
v 1.621943 4.123124 1.498653
v 2.345542 1.394613 -0.513690
v 1.621943 4.123124 -0.513690
v 3.227428 1.384612 1.498653
v 2.940536 2.920625 1.528067
v 3.227428 1.384612 -0.513690
v 2.940536 2.920625 -0.528244
v 2.194259 2.731136 1.498653
v 2.194259 2.731136 -0.513690
v 1.605801 3.311215 1.498653
v 1.605801 3.311214 -0.513690
v -0.084571 3.344822 1.498652
v -0.068429 4.156731 1.498652
v -0.068429 4.156731 -0.513690
v -0.084571 3.344821 -0.513690
v -2.347484 1.394613 1.498653
v -1.623885 4.123124 1.498653
v -2.347484 1.394613 -0.513690
v -1.623885 4.123124 -0.513690
v -3.229370 1.384612 1.498653
v -2.942479 2.920625 1.528067
v -3.229370 1.384612 -0.513690
v -2.942479 2.920625 -0.528244
v -2.196201 2.731136 1.498653
v -2.196201 2.731136 -0.513690
v -1.607743 3.311215 1.498653
v -1.607743 3.311214 -0.513690
v 0.082629 3.344822 1.498652
v 0.066487 4.156731 1.498652
v 0.066487 4.156731 -0.513690
v 0.082628 3.344821 -0.513690
vn -0.9937 -0.1125 0.0000
vn -0.0099 -0.0058 -0.9999
vn 0.9830 0.1836 0.0000
vn -0.0201 -0.0118 0.9997
vn -0.0113 -0.9999 0.0000
vn 0.6738 0.7389 0.0000
vn -0.7020 -0.7122 0.0000
vn 0.0199 0.9998 0.0000
vn -0.9998 0.0199 -0.0000
vn 0.0000 -0.0000 -1.0000
vn -0.0000 0.0000 1.0000
vn -0.0199 -0.9998 0.0000
vn 0.9937 -0.1125 0.0000
vn 0.0099 -0.0058 -0.9999
vn -0.9830 0.1836 0.0000
vn 0.0201 -0.0118 0.9997
vn 0.0113 -0.9999 0.0000
vn -0.6738 0.7389 0.0000
vn 0.7020 -0.7122 0.0000
vn -0.0199 0.9998 0.0000
vn 0.9998 0.0199 -0.0000
vn 0.0199 -0.9998 0.0000
usemtl None
s off
f 11//8 19//8 20//8 13//8
f 13//9 20//9 22//9 14//9 18//9 17//9
f 17//10 18//10 16//10 15//10
f 15//11 16//11 12//11 21//11 19//11 11//11
f 13//12 17//12 15//12 11//12
f 18//13 14//13 12//13 16//13
f 20//14 19//14 21//14 22//14
f 12//15 14//15 25//15 24//15
f 26//16 23//16 24//16 25//16
f 14//17 22//17 26//17 25//17
f 21//18 12//18 24//18 23//18
f 22//19 21//19 23//19 26//19
f 27//20 29//20 36//20 35//20
f 29//21 33//21 34//21 30//21 38//21 36//21
f 33//22 31//22 32//22 34//22
f 31//23 27//23 35//23 37//23 28//23 32//23
f 29//24 27//24 31//24 33//24
f 34//25 32//25 28//25 30//25
f 36//26 38//26 37//26 35//26
f 28//27 40//27 41//27 30//27
f 42//28 41//28 40//28 39//28
f 30//17 41//17 42//17 38//17
f 37//18 39//18 40//18 28//18
f 38//29 42//29 39//29 37//29
o Cube.003
v 1.867288 -0.062722 1.753480
v 1.867288 1.400915 1.753480
v 1.867288 -0.062722 -0.788867
v 1.867288 1.400915 -0.788867
v 3.489012 -0.062722 1.753480
v 3.489012 1.400915 1.753480
v 3.489012 -0.062722 -0.788867
v 3.489012 1.400915 -0.788867
v -1.877320 -0.062722 1.753480
v -1.877320 1.400915 1.753480
v -1.877320 -0.062722 -0.788867
v -1.877320 1.400915 -0.788867
v -3.499044 -0.062722 1.753480
v -3.499044 1.400915 1.753480
v -3.499044 -0.062722 -0.788867
v -3.499044 1.400915 -0.788867
vn -1.0000 0.0000 0.0000
vn 0.0000 0.0000 -1.0000
vn 1.0000 0.0000 0.0000
vn 0.0000 0.0000 1.0000
vn 0.0000 -1.0000 0.0000
vn 0.0000 1.0000 0.0000
usemtl None
s off
f 43//30 44//30 46//30 45//30
f 45//31 46//31 50//31 49//31
f 49//32 50//32 48//32 47//32
f 47//33 48//33 44//33 43//33
f 45//34 49//34 47//34 43//34
f 50//35 46//35 44//35 48//35
f 51//32 53//32 54//32 52//32
f 53//31 57//31 58//31 54//31
f 57//30 55//30 56//30 58//30
f 55//33 51//33 52//33 56//33
f 53//34 51//34 55//34 57//34
f 58//35 56//35 52//35 54//35
o Cube.002
v -0.723018 0.372780 5.124495
v -0.723018 3.622423 5.124495
v -0.723018 0.707502 4.184799
v -0.723018 3.168288 4.184799
v 1.126462 0.372780 5.124495
v 1.126462 3.622423 5.124495
v 0.731484 0.707502 4.184799
v 0.731484 3.168288 4.184799
v 0.731484 0.372780 5.124495
v 0.731484 3.622423 5.124495
v 0.731484 0.707502 4.184799
v 0.731484 3.168288 4.184799
v -1.117996 0.372780 5.124495
v -1.117996 3.622423 5.124495
v -0.723018 0.707502 4.184799
v -0.723018 3.168288 4.184799
vn -1.0000 0.0000 0.0000
vn 0.0000 0.0000 -1.0000
vn 0.9219 0.0000 -0.3875
vn 0.0000 0.0000 1.0000
vn 0.0000 -0.9420 -0.3356
vn 0.0000 0.9004 -0.4351
vn 1.0000 0.0000 0.0000
vn -0.9219 0.0000 -0.3875
usemtl None
s off
f 59//36 60//36 62//36 61//36
f 61//37 62//37 66//37 65//37
f 65//38 66//38 64//38 63//38
f 63//39 64//39 60//39 59//39
f 61//40 65//40 63//40 59//40
f 66//41 62//41 60//41 64//41
f 67//42 69//42 70//42 68//42
f 69//37 73//37 74//37 70//37
f 73//43 71//43 72//43 74//43
f 71//39 67//39 68//39 72//39
f 69//40 67//40 71//40 73//40
f 74//41 72//41 68//41 70//41
o Cube.001
v 1.956916 0.012732 3.371073
v 1.956916 1.317476 3.371073
v 2.007740 0.253082 -2.793522
v 2.007740 1.077126 -2.793522
v 3.410355 0.012732 3.371073
v 3.410355 1.317476 3.371073
v 3.359532 0.253082 -2.793522
v 3.359532 1.077126 -2.793522
v 1.956916 0.012732 -2.117095
v 1.956916 1.317476 -2.117095
v 3.410355 0.012732 -2.117095
v 3.410355 1.317476 -2.117095
v 2.076103 1.178339 3.222392
v 3.108468 0.126910 3.371073
v 3.272538 1.178340 3.222392
v 2.076103 0.150493 3.222392
v 3.272537 0.150493 3.222392
v 2.076103 1.178339 3.055471
v 3.272538 1.178340 3.055471
v 2.076103 0.150493 3.055471
v 3.272537 0.150493 3.055471
v -1.951896 0.012732 3.371073
v -1.951896 1.317476 3.371073
v -2.002720 0.253082 -2.793522
v -2.002720 1.077126 -2.793522
v -3.405335 0.012732 3.371073
v -3.405335 1.317476 3.371073
v -3.354511 0.253082 -2.793522
v -3.354511 1.077126 -2.793522
v -1.951896 0.012732 -2.117095
v -1.951896 1.317476 -2.117095
v -3.405335 0.012732 -2.117095
v -3.405335 1.317476 -2.117095
v -2.071083 1.178339 3.222392
v -3.103448 0.126910 3.371073
v -3.267518 1.178340 3.222392
v -2.071083 0.150493 3.222392
v -3.267516 0.150493 3.222392
v -2.071083 1.178339 3.055471
v -3.267518 1.178340 3.055471
v -2.071083 0.150493 3.055471
v -3.267516 0.150493 3.055471
vn -0.9972 0.0000 -0.0749
vn 0.0000 0.0000 -1.0000
vn 1.0000 0.0000 0.0000
vn -0.0000 0.7335 0.6797
vn 0.0000 -1.0000 0.0000
vn 0.0000 1.0000 0.0000
vn 0.0000 0.9423 -0.3348
vn 0.0000 -0.9423 -0.3348
vn 0.9972 0.0000 -0.0749
vn -1.0000 0.0000 0.0000
vn 0.0000 -0.7302 0.6833
vn -0.7334 0.0000 0.6798
vn 0.7803 0.0000 0.6255
vn 0.0000 0.0000 1.0000
vn 0.7334 0.0000 0.6798
vn -0.7803 0.0000 0.6255
usemtl None
s off
f 83//44 84//44 78//44 77//44
f 77//45 78//45 82//45 81//45
f 85//46 86//46 80//46 79//46
f 79//47 91//47 90//47 75//47
f 83//48 85//48 79//48 75//48
f 86//49 84//49 76//49 80//49
f 82//50 78//50 84//50 86//50
f 77//51 81//51 85//51 83//51
f 81//52 82//52 86//52 85//52
f 75//53 76//53 84//53 83//53
f 76//54 87//54 89//54 80//54
f 90//49 91//49 95//49 94//49
f 91//55 79//55 80//55 89//55
f 75//56 90//56 87//56 76//56
f 92//57 94//57 95//57 93//57
f 89//48 87//48 92//48 93//48
f 91//53 89//53 93//53 95//53
f 87//46 90//46 94//46 92//46
f 104//52 98//52 99//52 105//52
f 98//45 102//45 103//45 99//45
f 106//53 100//53 101//53 107//53
f 100//47 96//47 111//47 112//47
f 104//48 96//48 100//48 106//48
f 107//49 101//49 97//49 105//49
f 103//50 107//50 105//50 99//50
f 98//51 104//51 106//51 102//51
f 102//44 106//44 107//44 103//44
f 96//46 104//46 105//46 97//46
f 97//54 101//54 110//54 108//54
f 111//49 115//49 116//49 112//49
f 112//58 110//58 101//58 100//58
f 96//59 97//59 108//59 111//59
f 113//57 114//57 116//57 115//57
f 110//48 114//48 113//48 108//48
f 112//46 116//46 114//46 110//46
f 108//53 113//53 115//53 111//53
o Cube
v 0.998346 0.013499 -2.333179
v 0.998346 0.013499 4.007645
v -1.613472 0.013499 4.007645
v -1.613472 0.013499 -2.333180
v 0.998347 1.627555 -4.747560
v 0.998345 1.627555 4.600729
v -1.894675 1.627555 4.600728
v -1.775497 1.627555 -4.747560
v 0.998347 2.620485 -4.747560
v 0.998345 3.954858 4.600729
v -1.368194 2.620485 -4.747560
v -1.613472 3.954858 4.600728
v 0.998346 3.954858 -3.068444
v -1.638700 3.954858 -3.085360
v -1.001654 0.013499 -2.333179
v -1.001654 0.013499 4.007645
v 1.610165 0.013499 4.007645
v 1.610164 0.013499 -2.333180
v -1.001654 1.627555 -4.747560
v -1.001653 1.627555 4.600729
v 1.891367 1.627555 4.600728
v 1.772189 1.627555 -4.747560
v -1.001654 2.620485 -4.747560
v -1.001653 3.954858 4.600729
v 1.364887 2.620485 -4.747560
v 1.610165 3.954858 4.600728
v -1.001654 3.954858 -3.068444
v 1.635392 3.954858 -3.085360
vn 0.0000 -1.0000 -0.0000
vn -0.8420 0.3454 -0.4143
vn 1.0000 0.0000 0.0000
vn -0.0000 -0.3449 0.9386
vn -0.9901 -0.1402 -0.0075
vn 0.0000 -0.8313 -0.5558
vn 0.0021 0.7814 -0.6240
vn 0.0000 0.0000 -1.0000
vn -0.0000 0.0000 1.0000
vn 0.0000 1.0000 0.0000
vn -0.9958 0.0914 -0.0055
vn 0.8420 0.3454 -0.4143
vn -1.0000 0.0000 0.0000
vn 0.9901 -0.1402 -0.0075
vn -0.0021 0.7814 -0.6240
vn 0.9958 0.0914 -0.0055
usemtl Material
s off
f 117//60 118//60 119//60 120//60
f 124//61 130//61 127//61
f 117//62 121//62 122//62 118//62
f 118//63 122//63 123//63 119//63
f 119//64 123//64 124//64 120//64
f 121//65 117//65 120//65 124//65
f 125//66 127//66 130//66 129//66
f 121//67 124//67 127//67 125//67
f 123//68 122//68 126//68 128//68
f 122//62 121//62 125//62 129//62 126//62
f 129//69 130//69 128//69 126//69
f 130//70 124//70 123//70 128//70
f 131//60 134//60 133//60 132//60
f 138//71 141//71 144//71
f 131//72 132//72 136//72 135//72
f 132//63 133//63 137//63 136//63
f 133//73 134//73 138//73 137//73
f 135//65 138//65 134//65 131//65
f 139//74 143//74 144//74 141//74
f 135//67 139//67 141//67 138//67
f 137//68 142//68 140//68 136//68
f 136//72 140//72 143//72 139//72 135//72
f 143//69 140//69 142//69 144//69
f 144//75 142//75 137//75 138//75
